<?xml version="1.0" standalone="no"?>
<!DOCTYPE svg PUBLIC "-//W3C//DTD SVG 20010904//EN"
 "http://www.w3.org/TR/2001/REC-SVG-20010904/DTD/svg10.dtd">
<svg version="1.0" xmlns="http://www.w3.org/2000/svg"
 width="500.000000pt" height="500.000000pt" viewBox="0 0 500.000000 500.000000"
 preserveAspectRatio="xMidYMid meet">
<metadata>
Created by potrace 1.11, written by Peter Selinger 2001-2013
</metadata>
<g transform="translate(0.000000,500.000000) scale(0.100000,-0.100000)"
fill="#000000" stroke="none">
<path d="M2428 4482 l-58 -3 -1 -47 c-4 -203 -66 -345 -166 -383 -51 -19 -182
-26 -268 -14 -16 2 -59 7 -95 10 -116 11 -164 15 -210 21 -25 2 -67 6 -95 8
-27 2 -83 7 -124 11 -184 18 -268 11 -364 -34 -67 -31 -135 -93 -172 -156 -36
-61 -75 -187 -81 -262 -3 -37 -7 -85 -9 -105 l-3 -38 119 0 119 0 1 38 c1 39
3 57 20 139 14 69 63 141 114 167 53 28 164 28 445 1 19 -2 76 -6 125 -10 50
-3 101 -8 115 -10 39 -6 209 -18 265 -19 61 -2 167 17 217 38 21 9 54 32 74
52 37 37 84 125 84 157 0 9 4 17 8 17 5 0 9 -6 9 -14 0 -26 54 -124 86 -156
18 -17 49 -41 70 -52 45 -23 163 -45 227 -42 63 2 219 14 255 19 17 2 75 7
130 10 55 4 107 8 115 10 8 1 94 9 191 16 164 12 180 11 224 -5 59 -23 88 -50
119 -112 29 -58 42 -116 45 -206 l1 -38 118 0 119 0 -3 48 c-16 267 -90 421
-244 506 -57 31 -166 53 -246 50 -66 -2 -204 -13 -244 -19 -14 -2 -65 -6 -115
-10 -49 -4 -97 -9 -106 -10 -9 -2 -54 -6 -100 -10 -46 -4 -100 -9 -119 -11
-58 -6 -173 -5 -204 1 -90 18 -159 95 -186 207 -6 23 -13 86 -16 138 -4 52 -7
96 -8 97 -4 5 -122 8 -178 5z"/>
<path d="M1669 2950 c0 -16 0 -221 0 -455 0 -234 0 -434 0 -444 1 -17 9 -20
76 -20 l75 0 0 474 0 475 -75 0 -75 0 -1 -30z"/>
<path d="M3179 2965 c0 -8 -1 -221 -2 -472 l0 -458 76 -2 77 -2 0 475 0 474
-75 0 c-60 0 -75 -3 -76 -15z"/>
<path d="M825 1480 c-32 -4 -40 -9 -40 -25 6 -267 95 -454 254 -532 107 -53
202 -58 486 -27 11 1 56 5 100 8 44 4 91 9 105 11 14 2 66 7 115 11 50 3 99 8
110 10 11 2 45 5 75 5 234 4 332 -120 339 -428 1 -23 3 -23 121 -23 l120 0 0
53 c2 179 57 310 155 364 46 26 58 28 160 28 99 0 252 -10 301 -19 11 -2 64
-7 119 -11 55 -4 107 -9 117 -10 47 -9 193 -19 270 -18 281 2 444 191 461 536
l3 67 -50 1 c-89 1 -178 0 -181 -3 -2 -2 -6 -32 -9 -68 -13 -137 -46 -212
-115 -262 -44 -32 -49 -33 -141 -33 -84 0 -279 12 -320 20 -8 2 -64 6 -125 10
-60 4 -118 9 -127 10 -36 7 -206 18 -268 17 -198 -1 -327 -97 -365 -272 l-8
-35 -17 61 c-57 207 -187 269 -505 240 -44 -4 -100 -9 -125 -11 -25 -2 -79 -7
-120 -10 -41 -3 -95 -8 -120 -10 -25 -2 -83 -7 -130 -11 -155 -15 -271 -11
-312 10 -75 37 -121 130 -134 269 -3 40 -7 73 -8 74 -5 6 -154 8 -191 3z"/>
</g>
</svg>
